<svg width="16" height="16" viewBox="0 0 16 16" fill="none" xmlns="http://www.w3.org/2000/svg">
<g id="gear">
<path id="vector" d="M13.1626 8.95312L14.4594 9.93437C14.6626 10.0875 14.7188 10.3656 14.6032 10.5844L13.5438 12.4187C13.4157 12.6344 13.1469 12.725 12.9157 12.6281L11.4157 11.9969C10.9344 12.4094 10.3751 12.7344 9.7657 12.95L9.56257 14.5625C9.53132 14.8125 9.31882 15 9.0657 15H6.94695C6.69382 15 6.48132 14.8125 6.45007 14.5625L6.24695 12.95C5.63757 12.7344 5.0782 12.4094 4.59695 11.9969L3.09695 12.6281C2.86257 12.7281 2.59382 12.6375 2.46882 12.4187L1.40945 10.5844C1.28445 10.3656 1.3407 10.0875 1.5407 9.93437L2.83757 8.95312C2.78132 8.64375 2.75007 8.325 2.75007 8C2.75007 7.675 2.78132 7.35625 2.83132 7.04688L1.53445 6.06563C1.33445 5.9125 1.2782 5.63438 1.4032 5.41563L2.46257 3.58125C2.5907 3.36562 2.85945 3.275 3.0907 3.37188L4.5907 4.00312C5.07195 3.59063 5.63132 3.26562 6.2407 3.05L6.44382 1.4375C6.47507 1.1875 6.68757 1 6.9407 1H9.05945C9.31257 1 9.52507 1.1875 9.55632 1.4375L9.7532 3.05C10.3626 3.26562 10.9219 3.59063 11.4032 4.00312L12.9032 3.37188C13.1376 3.27188 13.4063 3.3625 13.5313 3.58125L14.5907 5.41563C14.7157 5.63438 14.6594 5.9125 14.4594 6.06563L13.1626 7.04688C13.2188 7.35625 13.2501 7.675 13.2501 8C13.2501 8.325 13.2188 8.64375 13.1626 8.95312ZM5.37512 8C5.37512 9.45 6.55012 10.625 8.00012 10.625C9.45012 10.625 10.6251 9.45 10.6251 8C10.6251 6.55 9.45012 5.375 8.00012 5.375C6.55012 5.375 5.37512 6.55 5.37512 8Z" fill="white"/>
</g>
</svg>
