<svg width="16" height="16" viewBox="0 0 16 16" fill="none" xmlns="http://www.w3.org/2000/svg">
<g id="home">
<path id="vector" d="M15 7.99997C15 8.55309 14.5531 8.99997 14 8.99997C13.7156 8.99997 13.4562 8.88122 13.275 8.68747L13 8.41559V13C13 13.5531 12.5531 14 12 14H10C9.44687 14 9 13.5531 9 13V9.99996H7V13C7 13.5531 6.55312 14 6 14H4C3.44688 14 3 13.5531 3 13V8.39372L2.74062 8.67184C2.55625 8.87497 2.29375 8.99997 2 8.99997C1.44687 8.99997 1 8.55309 1 7.99997C1 7.73434 1.10312 7.49684 1.26875 7.31559L1.275 7.30934C1.28437 7.29997 1.29687 7.28747 1.30625 7.27809L7.275 1.29998C7.28438 1.2906 7.29375 1.28123 7.30625 1.26873C7.4875 1.09685 7.73125 0.990601 8 0.990601C8.28438 0.990601 8.54063 1.10935 8.72188 1.29998L14.6969 7.28122C14.7031 7.28747 14.7125 7.29684 14.7188 7.30309L14.7281 7.31247C14.8969 7.49372 15 7.73434 15 7.99997Z" fill="#6F6F6F"/>
</g>
</svg>
