<svg width="16" height="16" viewBox="0 0 16 16" fill="none" xmlns="http://www.w3.org/2000/svg">
<g id="rose">
<path id="vector" d="M7.06247 7.85625L1.38434 10.2906C0.640593 8.1375 0.990593 5.75625 2.32184 3.90625L7.06247 7.85625ZM4.49684 4.43437L7.49997 6.9375V3.025C6.36872 3.1375 5.30934 3.6375 4.49684 4.43437ZM11.7312 9.44063L8.71872 8.6875L9.57184 11.6781C10.5656 11.2531 11.3437 10.4469 11.7312 9.44063ZM2.99997 11.0437C4.16559 13.2031 6.59372 14.3594 9.00622 13.9L7.62497 9.0625L2.99997 11.0437ZM8.49997 1V7.60625L14.8937 9.20312C14.9656 8.8 15 8.39062 15 7.98125C15 4.28437 12.1312 1.25625 8.49997 1Z" fill="#6F6F6F"/>
</g>
</svg>
